<svg width="24" height="24" viewBox="0 0 24 24" fill="none" xmlns="http://www.w3.org/2000/svg">
<g clip-path="url(#clip0_91_126)">
<path fill-rule="evenodd" clip-rule="evenodd" d="M10.98 0.0434634C13.0511 -0.13328 15.1325 0.230973 17.0205 1.10054C18.9085 1.97011 20.5382 3.31517 21.75 5.00396V2.62496C21.75 2.32659 21.8685 2.04045 22.0795 1.82947C22.2905 1.61849 22.5766 1.49996 22.875 1.49996C23.1734 1.49996 23.4595 1.61849 23.6705 1.82947C23.8815 2.04045 24 2.32659 24 2.62496V8.99996H17.625C17.3266 8.99996 17.0405 8.88144 16.8295 8.67046C16.6185 8.45948 16.5 8.17333 16.5 7.87496C16.5 7.57659 16.6185 7.29045 16.8295 7.07947C17.0405 6.86849 17.3266 6.74996 17.625 6.74996H20.2155C19.1897 5.14482 17.7161 3.87534 15.9768 3.09835C14.2376 2.32135 12.3088 2.07087 10.4287 2.37786C8.54868 2.68484 6.79975 3.53584 5.39797 4.82573C3.99618 6.11562 3.00296 7.78789 2.541 9.63596C2.50692 9.78114 2.44433 9.91809 2.35685 10.0389C2.26937 10.1596 2.15876 10.2618 2.03144 10.3394C1.90412 10.417 1.76264 10.4686 1.61523 10.4911C1.46781 10.5135 1.3174 10.5064 1.17274 10.4703C1.02808 10.4341 0.892055 10.3695 0.77258 10.2802C0.653105 10.191 0.552562 10.0789 0.476797 9.95049C0.401032 9.82205 0.351557 9.67983 0.331248 9.5321C0.31094 9.38437 0.320203 9.23408 0.3585 9.08996C0.965316 6.6636 2.3151 4.48748 4.21919 2.86578C6.12327 1.24408 8.48649 0.257859 10.9785 0.0449634L10.98 0.0434634ZM5.88 22.3215C7.48798 23.2745 9.29637 23.8388 11.161 23.9692C13.0257 24.0997 14.895 23.7928 16.62 23.0729C18.3451 22.353 19.8781 21.2401 21.0969 19.8229C22.3156 18.4057 23.1865 16.7233 23.64 14.91C23.7075 14.6223 23.6591 14.3195 23.5053 14.0672C23.3514 13.8149 23.1045 13.6332 22.8178 13.5615C22.5311 13.4898 22.2277 13.5338 21.9732 13.6839C21.7186 13.8341 21.5334 14.0784 21.4575 14.364C20.9953 16.2116 20.002 17.8835 18.6004 19.1731C17.1987 20.4626 15.4501 21.3134 13.5703 21.6204C11.6906 21.9273 9.76213 21.677 8.02306 20.9003C6.28399 20.1237 4.81049 18.8546 3.7845 17.25H6.375C6.67337 17.25 6.95952 17.1314 7.1705 16.9205C7.38147 16.7095 7.5 16.4233 7.5 16.125C7.5 15.8266 7.38147 15.5404 7.1705 15.3295C6.95952 15.1185 6.67337 15 6.375 15H0V21.375C0 21.6733 0.118526 21.9595 0.329505 22.1705C0.540483 22.3814 0.826631 22.5 1.125 22.5C1.42337 22.5 1.70952 22.3814 1.9205 22.1705C2.13147 21.9595 2.25 21.6733 2.25 21.375V18.996C3.21717 20.3434 4.45318 21.4757 5.88 22.3215Z" fill="#563797"/>
</g>
<defs>
<clipPath id="clip0_91_126">
<rect width="24" height="24" fill="white"/>
</clipPath>
</defs>
</svg>
