<svg width="32" height="32" viewBox="0 0 32 32" fill="none" xmlns="http://www.w3.org/2000/svg">
<path d="M12.1816 7.09064C12.1816 6.078 12.5839 5.10683 13.3 4.39078C14.016 3.67473 14.9872 3.27246 15.9998 3.27246C17.0125 3.27246 17.9836 3.67473 18.6997 4.39078C19.4157 5.10683 19.818 6.078 19.818 7.09064V13.4543C19.818 14.4669 19.4157 15.4381 18.6997 16.1541C17.9836 16.8702 17.0125 17.2725 15.9998 17.2725C14.9872 17.2725 14.016 16.8702 13.3 16.1541C12.5839 15.4381 12.1816 14.4669 12.1816 13.4543V7.09064Z" stroke="white" stroke-width="1.625" stroke-linecap="round" stroke-linejoin="round"/>
<path d="M7.09082 13.4543C7.09082 15.8172 8.02945 18.0832 9.70023 19.754C11.371 21.4248 13.6371 22.3634 15.9999 22.3634M15.9999 22.3634C18.3627 22.3634 20.6288 21.4248 22.2996 19.754C23.9704 18.0832 24.909 15.8172 24.909 13.4543M15.9999 22.3634V27.4543M10.909 27.4543H21.0908" stroke="white" stroke-width="1.625" stroke-linecap="round" stroke-linejoin="round"/>
</svg>
