<svg width="24" height="24" viewBox="0 0 24 24" fill="none" xmlns="http://www.w3.org/2000/svg">
<g clip-path="url(#clip0_91_99)">
<mask id="mask0_91_99" style="mask-type:luminance" maskUnits="userSpaceOnUse" x="0" y="0" width="24" height="24">
<path d="M0 0H24V24H0V0Z" fill="white"/>
</mask>
<g mask="url(#mask0_91_99)">
<path fill-rule="evenodd" clip-rule="evenodd" d="M7.59 14.91C7.16845 14.4879 6.59654 14.2505 6 14.25H3C2.80109 14.25 2.61032 14.171 2.46967 14.0303C2.32902 13.8897 2.25 13.6989 2.25 13.5V10.5C2.25 10.3011 2.32902 10.1103 2.46967 9.96967C2.61032 9.82901 2.80109 9.75 3 9.75H6C6.59654 9.74947 7.16845 9.51207 7.59 9.09L11.3145 5.367C11.3708 5.31099 11.4424 5.27291 11.5204 5.25758C11.5983 5.24224 11.679 5.25032 11.7523 5.28081C11.8257 5.3113 11.8883 5.36282 11.9324 5.42888C11.9765 5.49494 12 5.57258 12 5.65199V18.348C12 18.4274 11.9765 18.505 11.9324 18.5711C11.8883 18.6372 11.8257 18.6887 11.7523 18.7192C11.679 18.7497 11.5983 18.7578 11.5204 18.7424C11.4424 18.7271 11.3708 18.689 11.3145 18.633L7.59 14.91ZM3 7.5H6L9.723 3.777C10.0939 3.40621 10.5664 3.15371 11.0808 3.05142C11.5951 2.94913 12.1283 3.00165 12.6128 3.20233C13.0973 3.40302 13.5115 3.74285 13.8029 4.17888C14.0943 4.61491 14.2499 5.12755 14.25 5.65199V18.348C14.2499 18.8724 14.0943 19.3851 13.8029 19.8211C13.5115 20.2571 13.0973 20.597 12.6128 20.7977C12.1283 20.9983 11.5951 21.0509 11.0808 20.9486C10.5664 20.8463 10.0939 20.5938 9.723 20.223L6 16.5H3C2.20435 16.5 1.44129 16.1839 0.87868 15.6213C0.316071 15.0587 0 14.2956 0 13.5V10.5C0 9.70435 0.316071 8.94128 0.87868 8.37867C1.44129 7.81607 2.20435 7.5 3 7.5ZM21.243 19.6545C20.8455 20.133 20.1285 20.1285 19.689 19.6905C19.251 19.251 19.257 18.5415 19.6425 18.0555C21.0104 16.3339 21.7535 14.1989 21.75 12C21.7535 9.80109 21.0104 7.66612 19.6425 5.9445C19.257 5.4585 19.251 4.749 19.689 4.3095C20.1285 3.8715 20.8455 3.8685 21.243 4.3455C23.029 6.49601 24.0045 9.20457 24 12C24 14.91 22.965 17.577 21.243 19.6545ZM18.036 16.452C17.667 16.9515 16.947 16.947 16.5075 16.5075C16.068 16.068 16.0815 15.3615 16.4175 14.838C16.9625 13.9919 17.2516 13.0064 17.25 12C17.25 10.9545 16.944 9.9795 16.4175 9.16199C16.0815 8.64 16.068 7.93199 16.5075 7.4925C16.947 7.05299 17.667 7.0485 18.0375 7.548C18.9555 8.79299 19.5 10.335 19.5 12C19.5025 13.6027 18.9892 15.1636 18.036 16.452Z" fill="#563797"/>
</g>
</g>
<defs>
<clipPath id="clip0_91_99">
<rect width="24" height="24" fill="white"/>
</clipPath>
</defs>
</svg>
