<svg width="24" height="24" viewBox="0 0 24 24" fill="none" xmlns="http://www.w3.org/2000/svg">
<g clip-path="url(#clip0_91_108)">
<mask id="mask0_91_108" style="mask-type:luminance" maskUnits="userSpaceOnUse" x="0" y="0" width="24" height="24">
<path d="M0 0H24V24H0V0Z" fill="white"/>
</mask>
<g mask="url(#mask0_91_108)">
<path fill-rule="evenodd" clip-rule="evenodd" d="M9.59 14.91C9.16845 14.4879 8.59654 14.2505 8 14.25H5C4.80109 14.25 4.61032 14.171 4.46967 14.0303C4.32902 13.8897 4.25 13.6989 4.25 13.5V10.5C4.25 10.3011 4.32902 10.1103 4.46967 9.96967C4.61032 9.82901 4.80109 9.75 5 9.75H8C8.59654 9.74947 9.16845 9.51207 9.59 9.09L13.3145 5.367C13.3708 5.31099 13.4424 5.27291 13.5204 5.25758C13.5983 5.24224 13.679 5.25032 13.7523 5.28081C13.8257 5.3113 13.8883 5.36282 13.9324 5.42888C13.9765 5.49494 14 5.57258 14 5.65199V18.348C14 18.4274 13.9765 18.505 13.9324 18.5711C13.8883 18.6372 13.8257 18.6887 13.7523 18.7192C13.679 18.7497 13.5983 18.7578 13.5204 18.7424C13.4424 18.7271 13.3708 18.689 13.3145 18.633L9.59 14.91ZM5 7.5H8L11.723 3.777C12.0939 3.40621 12.5664 3.15371 13.0808 3.05142C13.5951 2.94913 14.1283 3.00165 14.6128 3.20233C15.0973 3.40302 15.5115 3.74285 15.8029 4.17888C16.0943 4.61491 16.2499 5.12755 16.25 5.65199V18.348C16.2499 18.8724 16.0943 19.3851 15.8029 19.8211C15.5115 20.2571 15.0973 20.597 14.6128 20.7977C14.1283 20.9983 13.5951 21.0509 13.0808 20.9486C12.5664 20.8463 12.0939 20.5938 11.723 20.223L8 16.5H5C4.20435 16.5 3.44129 16.1839 2.87868 15.6213C2.31607 15.0587 2 14.2956 2 13.5V10.5C2 9.70435 2.31607 8.94128 2.87868 8.37867C3.44129 7.81607 4.20435 7.5 5 7.5ZM20.036 16.452C19.667 16.9515 18.947 16.947 18.5075 16.5075C18.068 16.068 18.0815 15.3615 18.4175 14.838C18.9625 13.9919 19.2516 13.0064 19.25 12C19.25 10.9545 18.944 9.9795 18.4175 9.162C18.0815 8.64 18.068 7.93199 18.5075 7.4925C18.947 7.053 19.667 7.0485 20.0375 7.548C20.9555 8.79299 21.5 10.335 21.5 12C21.5025 13.6027 20.9892 15.1636 20.036 16.452Z" fill="#563797"/>
</g>
</g>
<defs>
<clipPath id="clip0_91_108">
<rect width="24" height="24" fill="white"/>
</clipPath>
</defs>
</svg>
