<svg width="118" height="69" viewBox="0 0 118 69" fill="none" xmlns="http://www.w3.org/2000/svg">
<path d="M36.0208 32L34.3968 28.388H23.3928L21.7968 32H15.1048L24.5688 11.168H33.3888L43.1608 32H36.0208ZM32.3528 23.796L28.8528 16.012L25.4368 23.796H32.3528ZM62.9916 32H54.4796L44.5396 11.168H52.2956L58.8476 26.008L65.3996 11.168H72.5116L62.9916 32ZM94.8044 32L93.1804 28.388H82.1764L80.5804 32H73.8884L83.3524 11.168H92.1724L101.944 32H94.8044ZM91.1364 23.796L87.6364 16.012L84.2204 23.796H91.1364Z" fill="#563797"/>
<path d="M20.7577 64L19.4977 60.292H14.4217L13.1617 64H11.6317L16.0237 51.436H17.9497L22.3417 64H20.7577ZM16.9957 52.84H16.9057L14.7817 58.96H19.1197L16.9957 52.84ZM23.829 64V62.74H25.593V52.696H23.829V51.436H28.869V52.696H27.105V62.74H28.869V64H23.829ZM42.4899 64C41.9499 64 41.5599 63.856 41.3199 63.568C41.0919 63.28 40.9479 62.92 40.8879 62.488H40.7979C40.5939 63.064 40.2579 63.496 39.7899 63.784C39.3219 64.072 38.7639 64.216 38.1159 64.216C37.1319 64.216 36.3639 63.964 35.8119 63.46C35.2719 62.956 35.0019 62.272 35.0019 61.408C35.0019 60.532 35.3199 59.86 35.9559 59.392C36.6039 58.924 37.6059 58.69 38.9619 58.69H40.7979V57.772C40.7979 57.112 40.6179 56.608 40.2579 56.26C39.8979 55.912 39.3459 55.738 38.6019 55.738C38.0379 55.738 37.5639 55.864 37.1799 56.116C36.8079 56.368 36.4959 56.704 36.2439 57.124L35.3799 56.314C35.6319 55.81 36.0339 55.384 36.5859 55.036C37.1379 54.676 37.8339 54.496 38.6739 54.496C39.8019 54.496 40.6779 54.772 41.3019 55.324C41.9259 55.876 42.2379 56.644 42.2379 57.628V62.74H43.2999V64H42.4899ZM38.3499 62.992C38.7099 62.992 39.0399 62.95 39.3399 62.866C39.6399 62.782 39.8979 62.662 40.1139 62.506C40.3299 62.35 40.4979 62.17 40.6179 61.966C40.7379 61.762 40.7979 61.54 40.7979 61.3V59.77H38.8899C38.0619 59.77 37.4559 59.89 37.0719 60.13C36.6999 60.37 36.5139 60.718 36.5139 61.174V61.552C36.5139 62.008 36.6759 62.362 36.9999 62.614C37.3359 62.866 37.7859 62.992 38.3499 62.992ZM48.1451 64.216C47.2811 64.216 46.5551 64.054 45.9671 63.73C45.3911 63.394 44.8931 62.95 44.4731 62.398L45.4991 61.57C45.8591 62.026 46.2611 62.38 46.7051 62.632C47.1491 62.872 47.6651 62.992 48.2531 62.992C48.8651 62.992 49.3391 62.86 49.6751 62.596C50.0231 62.332 50.1971 61.96 50.1971 61.48C50.1971 61.12 50.0771 60.814 49.8371 60.562C49.6091 60.298 49.1891 60.118 48.5771 60.022L47.8391 59.914C47.4071 59.854 47.0111 59.764 46.6511 59.644C46.2911 59.512 45.9731 59.344 45.6971 59.14C45.4331 58.924 45.2231 58.66 45.0671 58.348C44.9231 58.036 44.8511 57.664 44.8511 57.232C44.8511 56.776 44.9351 56.38 45.1031 56.044C45.2711 55.696 45.4991 55.408 45.7871 55.18C46.0871 54.952 46.4411 54.784 46.8491 54.676C47.2571 54.556 47.6951 54.496 48.1631 54.496C48.9191 54.496 49.5491 54.628 50.0531 54.892C50.5691 55.156 51.0191 55.522 51.4031 55.99L50.4491 56.854C50.2451 56.566 49.9451 56.308 49.5491 56.08C49.1531 55.84 48.6551 55.72 48.0551 55.72C47.4551 55.72 46.9991 55.852 46.6871 56.116C46.3871 56.368 46.2371 56.716 46.2371 57.16C46.2371 57.616 46.3871 57.946 46.6871 58.15C46.9991 58.354 47.4431 58.504 48.0191 58.6L48.7391 58.708C49.7711 58.864 50.5031 59.164 50.9351 59.608C51.3671 60.04 51.5831 60.61 51.5831 61.318C51.5831 62.218 51.2771 62.926 50.6651 63.442C50.0531 63.958 49.2131 64.216 48.1451 64.216ZM56.8111 64.216C55.9471 64.216 55.2211 64.054 54.6331 63.73C54.0571 63.394 53.5591 62.95 53.1391 62.398L54.1651 61.57C54.5251 62.026 54.9271 62.38 55.3711 62.632C55.8151 62.872 56.3311 62.992 56.9191 62.992C57.5311 62.992 58.0051 62.86 58.3411 62.596C58.6891 62.332 58.8631 61.96 58.8631 61.48C58.8631 61.12 58.7431 60.814 58.5031 60.562C58.2751 60.298 57.8551 60.118 57.2431 60.022L56.5051 59.914C56.0731 59.854 55.6771 59.764 55.3171 59.644C54.9571 59.512 54.6391 59.344 54.3631 59.14C54.0991 58.924 53.8891 58.66 53.7331 58.348C53.5891 58.036 53.5171 57.664 53.5171 57.232C53.5171 56.776 53.6011 56.38 53.7691 56.044C53.9371 55.696 54.1651 55.408 54.4531 55.18C54.7531 54.952 55.1071 54.784 55.5151 54.676C55.9231 54.556 56.3611 54.496 56.8291 54.496C57.5851 54.496 58.2151 54.628 58.7191 54.892C59.2351 55.156 59.6851 55.522 60.0691 55.99L59.1151 56.854C58.9111 56.566 58.6111 56.308 58.2151 56.08C57.8191 55.84 57.3211 55.72 56.7211 55.72C56.1211 55.72 55.6651 55.852 55.3531 56.116C55.0531 56.368 54.9031 56.716 54.9031 57.16C54.9031 57.616 55.0531 57.946 55.3531 58.15C55.6651 58.354 56.1091 58.504 56.6851 58.6L57.4051 58.708C58.4371 58.864 59.1691 59.164 59.6011 59.608C60.0331 60.04 60.2491 60.61 60.2491 61.318C60.2491 62.218 59.9431 62.926 59.3311 63.442C58.7191 63.958 57.8791 64.216 56.8111 64.216ZM63.5126 52.534C63.2006 52.534 62.9726 52.462 62.8286 52.318C62.6966 52.162 62.6306 51.964 62.6306 51.724V51.49C62.6306 51.25 62.6966 51.058 62.8286 50.914C62.9726 50.758 63.2006 50.68 63.5126 50.68C63.8246 50.68 64.0466 50.758 64.1786 50.914C64.3226 51.058 64.3946 51.25 64.3946 51.49V51.724C64.3946 51.964 64.3226 52.162 64.1786 52.318C64.0466 52.462 63.8246 52.534 63.5126 52.534ZM62.7926 54.712H64.2326V64H62.7926V54.712ZM70.0826 64.216C69.2186 64.216 68.4926 64.054 67.9046 63.73C67.3286 63.394 66.8306 62.95 66.4106 62.398L67.4366 61.57C67.7966 62.026 68.1986 62.38 68.6426 62.632C69.0866 62.872 69.6026 62.992 70.1906 62.992C70.8026 62.992 71.2766 62.86 71.6126 62.596C71.9606 62.332 72.1346 61.96 72.1346 61.48C72.1346 61.12 72.0146 60.814 71.7746 60.562C71.5466 60.298 71.1266 60.118 70.5146 60.022L69.7766 59.914C69.3446 59.854 68.9486 59.764 68.5886 59.644C68.2286 59.512 67.9106 59.344 67.6346 59.14C67.3706 58.924 67.1606 58.66 67.0046 58.348C66.8606 58.036 66.7886 57.664 66.7886 57.232C66.7886 56.776 66.8726 56.38 67.0406 56.044C67.2086 55.696 67.4366 55.408 67.7246 55.18C68.0246 54.952 68.3786 54.784 68.7866 54.676C69.1946 54.556 69.6326 54.496 70.1006 54.496C70.8566 54.496 71.4866 54.628 71.9906 54.892C72.5066 55.156 72.9566 55.522 73.3406 55.99L72.3866 56.854C72.1826 56.566 71.8826 56.308 71.4866 56.08C71.0906 55.84 70.5926 55.72 69.9926 55.72C69.3926 55.72 68.9366 55.852 68.6246 56.116C68.3246 56.368 68.1746 56.716 68.1746 57.16C68.1746 57.616 68.3246 57.946 68.6246 58.15C68.9366 58.354 69.3806 58.504 69.9566 58.6L70.6766 58.708C71.7086 58.864 72.4406 59.164 72.8726 59.608C73.3046 60.04 73.5206 60.61 73.5206 61.318C73.5206 62.218 73.2146 62.926 72.6026 63.442C71.9906 63.958 71.1506 64.216 70.0826 64.216ZM77.9931 64C77.4891 64 77.1051 63.862 76.8411 63.586C76.5891 63.298 76.4631 62.926 76.4631 62.47V55.972H74.9331V54.712H75.7971C76.1091 54.712 76.3191 54.652 76.4271 54.532C76.5471 54.4 76.6071 54.178 76.6071 53.866V52.138H77.9031V54.712H79.9371V55.972H77.9031V62.74H79.7931V64H77.9931ZM89.0016 64C88.4616 64 88.0716 63.856 87.8316 63.568C87.6036 63.28 87.4596 62.92 87.3996 62.488H87.3096C87.1056 63.064 86.7696 63.496 86.3016 63.784C85.8336 64.072 85.2756 64.216 84.6276 64.216C83.6436 64.216 82.8756 63.964 82.3236 63.46C81.7836 62.956 81.5136 62.272 81.5136 61.408C81.5136 60.532 81.8316 59.86 82.4676 59.392C83.1156 58.924 84.1176 58.69 85.4736 58.69H87.3096V57.772C87.3096 57.112 87.1296 56.608 86.7696 56.26C86.4096 55.912 85.8576 55.738 85.1136 55.738C84.5496 55.738 84.0756 55.864 83.6916 56.116C83.3196 56.368 83.0076 56.704 82.7556 57.124L81.8916 56.314C82.1436 55.81 82.5456 55.384 83.0976 55.036C83.6496 54.676 84.3456 54.496 85.1856 54.496C86.3136 54.496 87.1896 54.772 87.8136 55.324C88.4376 55.876 88.7496 56.644 88.7496 57.628V62.74H89.8116V64H89.0016ZM84.8616 62.992C85.2216 62.992 85.5516 62.95 85.8516 62.866C86.1516 62.782 86.4096 62.662 86.6256 62.506C86.8416 62.35 87.0096 62.17 87.1296 61.966C87.2496 61.762 87.3096 61.54 87.3096 61.3V59.77H85.4016C84.5736 59.77 83.9676 59.89 83.5836 60.13C83.2116 60.37 83.0256 60.718 83.0256 61.174V61.552C83.0256 62.008 83.1876 62.362 83.5116 62.614C83.8476 62.866 84.2976 62.992 84.8616 62.992ZM91.8669 64V54.712H93.3069V56.224H93.3789C93.6069 55.696 93.9249 55.276 94.3329 54.964C94.7529 54.652 95.3109 54.496 96.0069 54.496C96.9669 54.496 97.7229 54.808 98.2749 55.432C98.8389 56.044 99.1209 56.914 99.1209 58.042V64H97.6809V58.294C97.6809 56.626 96.9789 55.792 95.5749 55.792C95.2869 55.792 95.0049 55.828 94.7289 55.9C94.4649 55.972 94.2249 56.08 94.0089 56.224C93.7929 56.368 93.6189 56.554 93.4869 56.782C93.3669 56.998 93.3069 57.256 93.3069 57.556V64H91.8669ZM104.149 64C103.645 64 103.261 63.862 102.997 63.586C102.745 63.298 102.619 62.926 102.619 62.47V55.972H101.089V54.712H101.953C102.265 54.712 102.475 54.652 102.583 54.532C102.703 54.4 102.763 54.178 102.763 53.866V52.138H104.059V54.712H106.093V55.972H104.059V62.74H105.949V64H104.149Z" fill="#563797"/>
<rect x="0.691489" y="0.691489" width="116.617" height="44.617" rx="8.30851" stroke="#563797" stroke-width="1.38298"/>
</svg>
