<svg width="232" height="80" viewBox="0 0 232 80" fill="none" xmlns="http://www.w3.org/2000/svg">
<g clip-path="url(#clip0_2012_2)">
<path d="M39.9999 4.44458C32.9677 4.44458 26.0934 6.52988 20.2463 10.4368C14.3992 14.3437 9.84197 19.8967 7.15086 26.3936C4.45974 32.8905 3.75562 40.0396 5.12754 46.9367C6.49946 53.8338 9.8858 60.1692 14.8583 65.1417C19.8309 70.1143 26.1663 73.5006 33.0634 74.8725C39.9605 76.2444 47.1095 75.5403 53.6064 72.8492C60.1034 70.1581 65.6564 65.6008 69.5633 59.7537C73.4702 53.9067 75.5555 47.0324 75.5555 40.0001C75.5555 30.5702 71.8094 21.5265 65.1415 14.8586C58.4735 8.1906 49.4298 4.44458 39.9999 4.44458ZM39.9999 71.1113C33.8467 71.1113 27.8317 69.2866 22.7155 65.8681C17.5993 62.4496 13.6117 57.5907 11.257 51.9058C8.90226 46.221 8.28616 39.9656 9.48659 33.9307C10.687 27.8957 13.6501 22.3522 18.001 18.0013C22.352 13.6503 27.8955 10.6872 33.9304 9.48682C39.9654 8.28639 46.2208 8.90249 51.9056 11.2572C57.5904 13.6119 62.4493 17.5995 65.8679 22.7157C69.2864 27.8319 71.111 33.8469 71.111 40.0001C71.111 48.2513 67.8333 56.1646 61.9988 61.999C56.1643 67.8335 48.2511 71.1113 39.9999 71.1113Z" fill="#FF6A6A"/>
<path d="M55.9111 35.7334C58.1203 35.7334 59.9111 33.9425 59.9111 31.7334C59.9111 29.5243 58.1203 27.7334 55.9111 27.7334C53.702 27.7334 51.9111 29.5243 51.9111 31.7334C51.9111 33.9425 53.702 35.7334 55.9111 35.7334Z" fill="#FF6A6A"/>
<path d="M25.3555 35.7334C27.5646 35.7334 29.3555 33.9425 29.3555 31.7334C29.3555 29.5243 27.5646 27.7334 25.3555 27.7334C23.1463 27.7334 21.3555 29.5243 21.3555 31.7334C21.3555 33.9425 23.1463 35.7334 25.3555 35.7334Z" fill="#FF6A6A"/>
<path d="M40.355 44.4446C37.167 44.4451 34.0252 45.2078 31.1918 46.669C28.3583 48.1302 25.9152 50.2475 24.0661 52.8446C23.7243 53.3249 23.5873 53.9214 23.6852 54.5027C23.7831 55.0841 24.108 55.6027 24.5883 55.9446C25.0687 56.2864 25.6651 56.4234 26.2465 56.3255C26.8279 56.2276 27.3465 55.9027 27.6883 55.4224C29.1092 53.4266 30.9814 51.7947 33.1524 50.6595C35.3234 49.5243 37.7318 48.9179 40.1816 48.8897C42.6313 48.8616 45.053 49.4124 47.2496 50.4974C49.4461 51.5824 51.3553 53.1709 52.8217 55.1335C53.1753 55.605 53.7017 55.9167 54.2852 56C54.8686 56.0834 55.4613 55.9315 55.9328 55.5779C56.4043 55.2243 56.716 54.6979 56.7993 54.1144C56.8827 53.531 56.7308 52.9383 56.3772 52.4668C54.5144 49.9758 52.0961 47.9536 49.3148 46.561C46.5334 45.1684 43.4655 44.4437 40.355 44.4446Z" fill="#FF6A6A"/>
</g>
<rect x="112" y="8" width="120" height="64" rx="8" fill="#FFE4E4"/>
<path d="M134.568 50.288C133.464 50.288 132.456 50.104 131.544 49.736C130.632 49.368 129.856 48.824 129.216 48.104C128.576 47.368 128.08 46.464 127.728 45.392C127.376 44.304 127.2 43.048 127.2 41.624C127.2 40.2 127.376 38.952 127.728 37.88C128.08 36.792 128.576 35.888 129.216 35.168C129.856 34.432 130.632 33.88 131.544 33.512C132.456 33.144 133.464 32.96 134.568 32.96C135.672 32.96 136.68 33.144 137.592 33.512C138.504 33.88 139.28 34.432 139.92 35.168C140.56 35.888 141.056 36.792 141.408 37.88C141.76 38.952 141.936 40.2 141.936 41.624C141.936 43.048 141.76 44.304 141.408 45.392C141.056 46.464 140.56 47.368 139.92 48.104C139.28 48.824 138.504 49.368 137.592 49.736C136.68 50.104 135.672 50.288 134.568 50.288ZM134.568 47.048C135.672 47.048 136.528 46.688 137.136 45.968C137.76 45.248 138.072 44.216 138.072 42.872V40.376C138.072 39.032 137.76 38 137.136 37.28C136.528 36.56 135.672 36.2 134.568 36.2C133.464 36.2 132.6 36.56 131.976 37.28C131.368 38 131.064 39.032 131.064 40.376V42.872C131.064 44.216 131.368 45.248 131.976 45.968C132.6 46.688 133.464 47.048 134.568 47.048ZM144.789 32.24H148.341V39.536H148.485C148.709 38.88 149.101 38.312 149.661 37.832C150.221 37.352 150.997 37.112 151.989 37.112C153.285 37.112 154.261 37.544 154.917 38.408C155.589 39.272 155.925 40.504 155.925 42.104V50H152.373V42.392C152.373 41.576 152.245 40.976 151.989 40.592C151.733 40.192 151.277 39.992 150.621 39.992C150.333 39.992 150.053 40.032 149.781 40.112C149.509 40.176 149.261 40.288 149.037 40.448C148.829 40.608 148.661 40.808 148.533 41.048C148.405 41.272 148.341 41.536 148.341 41.84V50H144.789V32.24ZM161.15 45.944C161.87 45.944 162.398 46.128 162.734 46.496C163.086 46.848 163.262 47.304 163.262 47.864V48.344C163.262 49.32 163.022 50.28 162.542 51.224C162.078 52.168 161.462 52.936 160.694 53.528H158.294C158.854 53 159.334 52.472 159.734 51.944C160.134 51.432 160.438 50.856 160.646 50.216C160.086 50.12 159.678 49.904 159.422 49.568C159.166 49.216 159.038 48.808 159.038 48.344V47.864C159.038 47.304 159.206 46.848 159.542 46.496C159.894 46.128 160.43 45.944 161.15 45.944ZM172.187 50V37.4H175.739V39.536H175.883C176.107 38.88 176.499 38.312 177.059 37.832C177.619 37.352 178.395 37.112 179.387 37.112C180.683 37.112 181.659 37.544 182.315 38.408C182.987 39.272 183.323 40.504 183.323 42.104V50H179.771V42.392C179.771 41.576 179.643 40.976 179.387 40.592C179.131 40.192 178.675 39.992 178.019 39.992C177.731 39.992 177.451 40.032 177.179 40.112C176.907 40.176 176.659 40.288 176.435 40.448C176.227 40.608 176.059 40.808 175.931 41.048C175.803 41.272 175.739 41.536 175.739 41.84V50H172.187ZM191.596 50.288C190.668 50.288 189.836 50.136 189.1 49.832C188.38 49.528 187.764 49.088 187.252 48.512C186.756 47.936 186.372 47.24 186.1 46.424C185.828 45.608 185.692 44.696 185.692 43.688C185.692 42.68 185.828 41.768 186.1 40.952C186.372 40.136 186.756 39.448 187.252 38.888C187.764 38.312 188.38 37.872 189.1 37.568C189.836 37.264 190.668 37.112 191.596 37.112C192.524 37.112 193.348 37.264 194.068 37.568C194.804 37.872 195.42 38.312 195.916 38.888C196.428 39.448 196.82 40.136 197.092 40.952C197.364 41.768 197.5 42.68 197.5 43.688C197.5 44.696 197.364 45.608 197.092 46.424C196.82 47.24 196.428 47.936 195.916 48.512C195.42 49.088 194.804 49.528 194.068 49.832C193.348 50.136 192.524 50.288 191.596 50.288ZM191.596 47.48C192.3 47.48 192.844 47.264 193.228 46.832C193.612 46.4 193.804 45.784 193.804 44.984V42.416C193.804 41.616 193.612 41 193.228 40.568C192.844 40.136 192.3 39.92 191.596 39.92C190.892 39.92 190.348 40.136 189.964 40.568C189.58 41 189.388 41.616 189.388 42.416V44.984C189.388 45.784 189.58 46.4 189.964 46.832C190.348 47.264 190.892 47.48 191.596 47.48ZM201.495 44.72L200.367 37.904V33.248H204.111V37.904L203.007 44.72H201.495ZM202.215 50.288C201.447 50.288 200.895 50.112 200.559 49.76C200.239 49.408 200.079 48.976 200.079 48.464V47.888C200.079 47.376 200.239 46.944 200.559 46.592C200.895 46.24 201.447 46.064 202.215 46.064C202.983 46.064 203.527 46.24 203.847 46.592C204.183 46.944 204.351 47.376 204.351 47.888V48.464C204.351 48.976 204.183 49.408 203.847 49.76C203.527 50.112 202.983 50.288 202.215 50.288Z" fill="#FF6A6A"/>
<path d="M96 40L112 30V50L96 40Z" fill="#FFE4E4"/>
<defs>
<clipPath id="clip0_2012_2">
<rect width="80" height="80" fill="white"/>
</clipPath>
</defs>
</svg>
